<svg width="18" height="18" viewBox="0 0 18 18" fill="none" xmlns="http://www.w3.org/2000/svg">
<path fill-rule="evenodd" clip-rule="evenodd" d="M7.12993 3.547C7.08172 3.26093 7.0454 2.9781 7.02193 2.69525C6.98657 2.27096 7.00843 1.84343 6.9959 1.41915C6.99043 1.23915 6.9689 0.769867 6.97757 0.702367C7.05632 0.114153 7.53107 0.0241417 7.66993 0.00807022C7.73711 -0.00157263 8.42689 -0.078681 8.57571 0.686319C8.75828 1.62168 8.81679 2.56345 8.75218 3.48595C8.90293 4.27024 9.16072 5.05129 9.50111 5.75843C10.8556 8.57093 13.4367 8.84415 16.2331 8.81844C16.6632 8.81201 17.0203 9.14951 17.0428 9.57701C17.0653 10.0077 16.7452 10.3806 16.317 10.4191C14.7539 10.5702 11.9806 11.8238 11.0218 13.1288C10.8212 13.402 10.7045 14.061 10.5503 14.707C10.3349 15.6038 10.0787 16.4909 9.79168 16.8638C9.74861 16.9217 9.225 17.5131 9.06878 17.5999C8.69335 17.8056 8.39283 17.6867 8.22215 17.5774C8.05147 17.4681 7.85829 17.2527 7.78115 16.8959C7.70047 16.5231 7.76861 15.7581 7.75607 15.5941C7.71043 14.9995 7.59151 13.8327 7.34883 12.8299C7.21801 12.2899 7.07851 11.7916 6.84772 11.5441C5.99336 10.6281 4.62729 10.7631 3.4769 10.9142C3.34479 10.9302 3.21268 10.9495 3.0809 10.9656C2.61258 11.1038 2.11532 11.2067 1.58978 11.2677C0.796172 11.3609 0.665681 10.6313 0.658609 10.5831C0.643824 10.477 0.588854 9.93059 1.18703 9.71202C1.25228 9.68952 1.73379 9.58344 1.91925 9.54165C2.17768 9.4838 2.439 9.43881 2.70128 9.39703C5.4106 8.55488 6.88211 6.18915 7.12993 3.547ZM8.05983 6.46882C9.08261 8.58382 10.6348 9.60594 12.4746 10.0688H12.4743C11.3255 10.6699 10.2806 11.422 9.72675 12.1774C9.51653 12.4635 9.32368 13.0388 9.14979 13.6849C9.05561 13.0838 8.92833 12.4441 8.76022 11.8977C8.56897 11.2741 8.3115 10.7567 8.02414 10.4481C7.46935 9.85346 6.77314 9.52238 6.02453 9.35846C6.92067 8.56453 7.60018 7.57453 8.05983 6.46882Z" fill="#FA5570"/>
</svg>
